Coordinates
version=1
nRows=13
nColumns=27
inDegrees=yes

Units are S.I. units (second, meters, Newtons, ...)
If the header above contains a line with 'inDegrees', this indicates whether rotational values are in degrees (yes) or radians (no).

endheader
time	pelvis_rotation	pelvis_tilt	pelvis_list	pelvis_tx	pelvis_ty	pelvis_tz	hip_flexion_r	hip_adduction_r	hip_rotation_r	knee_angle_r	knee_rotation_r	knee_adduction_r	knee_angle_r_beta	ankle_angle_r	subtalar_angle_r	mtp_angle_r	hip_flexion_l	hip_adduction_l	hip_rotation_l	knee_angle_l	knee_rotation_l	knee_adduction_l	knee_angle_l_beta	ankle_angle_l	subtalar_angle_l	mtp_angle_l
      4.64000000	      4.05171343	    -30.51703942	      3.29989667	      0.03859709	      0.44466703	     -1.15511533	    129.10831498	    -44.26873384	     27.63715158	    110.99093563	      0.00000000	      9.93517911	      1.93715727	     18.53077267	      0.00000000	      0.00000000	    122.66273272	    -32.74767381	     22.29976301	    104.15929498	      0.00000000	     -9.95197525	      1.81792264	     15.21756595	      0.00000000	      0.00000000
      4.64500000	      4.17817319	    -30.53842002	      3.33424747	      0.03820172	      0.44508277	     -1.15522268	    129.12230632	    -44.33736257	     27.65898466	    110.93292672	      0.00000000	      9.93491170	      1.93614482	     18.46893475	      0.00000000	      0.00000000	    122.63547333	    -32.60670513	     22.19033409	    104.09433661	      0.00000000	     -9.95185621	      1.81678891	     15.13221550	      0.00000000	      0.00000000
      4.65000000	      4.08057434	    -30.66704477	      3.49395961	      0.03773824	      0.44544275	     -1.15522846	    129.29396683	    -43.98834248	     27.79224098	    110.90154478	      0.00000000	      9.93446103	      1.93559710	     18.43207042	      0.00000000	      0.00000000	    122.63102892	    -32.83124090	     21.97200938	    104.03190501	      0.00000000	     -9.95175063	      1.81569927	     15.10305240	      0.00000000	      0.00000000
      4.65500000	      4.25130392	    -30.68054656	      3.45525690	      0.03730721	      0.44597267	     -1.15533315	    129.21818183	    -44.16492299	     27.71374133	    110.82019278	      0.00000000	      9.93406100	      1.93417724	     18.35415931	      0.00000000	      0.00000000	    122.65929653	    -32.59874077	     21.93382172	    103.96894821	      0.00000000	     -9.95158835	      1.81460047	     14.97390010	      0.00000000	      0.00000000
      4.66000000	      4.28342949	    -30.77482708	      3.53765716	      0.03684491	      0.44650336	     -1.15538167	    129.29855320	    -44.06234962	     27.75622357	    110.76715474	      0.00000000	      9.93366244	      1.93325155	     18.31065148	      0.00000000	      0.00000000	    122.66152212	    -32.60898717	     21.77852963	    103.89517391	      0.00000000	     -9.95145152	      1.81331286	     14.89205116	      0.00000000	      0.00000000
      4.66500000	      4.33087191	    -30.86441297	      3.56242493	      0.03628826	      0.44715537	     -1.15544815	    129.29961996	    -44.01670752	     27.70263379	    110.66529234	      0.00000000	      9.93325656	      1.93147372	     18.28290202	      0.00000000	      0.00000000	    122.68949016	    -32.56978217	     21.66354537	    103.79420487	      0.00000000	     -9.95128586	      1.81155062	     14.81887546	      0.00000000	      0.00000000
      4.67000000	      4.52177582	    -30.88990433	      3.47332007	      0.03581739	      0.44786283	     -1.15555465	    129.16365898	    -44.26172750	     27.54033392	    110.55142797	      0.00000000	      9.93282912	      1.92948641	     18.20300567	      0.00000000	      0.00000000	    122.72851208	    -32.27457010	     21.67295078	    103.70683266	      0.00000000	     -9.95109304	      1.81002569	     14.68980733	      0.00000000	      0.00000000
      4.67500000	      4.46843527	    -31.02956097	      3.71609019	      0.03517748	      0.44860176	     -1.15560404	    129.38552786	    -43.89534075	     27.73368026	    110.47564969	      0.00000000	      9.93227717	      1.92816383	     18.09820408	      0.00000000	      0.00000000	    122.64239400	    -32.49942653	     21.30362123	    103.58040628	      0.00000000	     -9.95094192	      1.80781913	     14.58967952	      0.00000000	      0.00000000
      4.68000000	      4.60285519	    -31.10055044	      3.60910787	      0.03459387	      0.44944330	     -1.15569346	    129.22437860	    -44.06673255	     27.50732098	    110.34426779	      0.00000000	      9.93180919	      1.92587078	     18.09529238	      0.00000000	      0.00000000	    122.72167950	    -32.25781116	     21.32518560	    103.47592399	      0.00000000	     -9.95073380	      1.80599557	     14.49641263	      0.00000000	      0.00000000
      4.68500000	      4.69653079	    -31.19336516	      3.66051560	      0.03397358	      0.45035561	     -1.15580064	    129.22183548	    -44.05322625	     27.46779994	    110.21619609	      0.00000000	      9.93129111	      1.92363551	     18.01328381	      0.00000000	      0.00000000	    122.69743961	    -32.16414670	     21.15566843	    103.34672503	      0.00000000	     -9.95051278	      1.80374062	     14.37628801	      0.00000000	      0.00000000
      4.69000000	      4.85095359	    -31.23431839	      3.56529599	      0.03339979	      0.45131923	     -1.15592754	    129.04195318	    -44.25530587	     27.25183906	    110.07145986	      0.00000000	      9.93069843	      1.92110939	     17.93574355	      0.00000000	      0.00000000	    122.71700726	    -31.91220273	     21.13869618	    103.22521724	      0.00000000	     -9.95029916	      1.80161991	     14.26361475	      0.00000000	      0.00000000
      4.69500000	      4.84792212	    -31.37729140	      3.75652790	      0.03265434	      0.45234516	     -1.15600736	    129.16734832	    -43.98578386	     27.34045282	    109.94216295	      0.00000000	      9.93008995	      1.91885273	     17.87168244	      0.00000000	      0.00000000	    122.63539823	    -32.02546929	     20.80840328	    103.06943313	      0.00000000	     -9.95003931	      1.79890097	     14.14928840	      0.00000000	      0.00000000
      4.70000000	      4.95618969	    -31.47483099	      3.82233504	      0.03195731	      0.45345382	     -1.15613367	    129.15386783	    -43.97991244	     27.29076233	    109.78773304	      0.00000000	      9.92950662	      1.91615742	     17.77656184	      0.00000000	      0.00000000	    122.57985589	    -31.91543797	     20.60972683	    102.91157986	      0.00000000	     -9.94977284	      1.79614591	     14.01942179	      0.00000000	      0.00000000
